HIERARCHY
ROOT joint_Root
{
	OFFSET 0.0 0.0 0.0
	CHANNELS 6 Xposition Yposition Zposition Zrotation Xrotation Yrotation 
	JOINT Hips
	{
		OFFSET -17.1583 93.1646 452.98
		CHANNELS 6 Xposition Yposition Zposition Zrotation Xrotation Yrotation 
		JOINT Spine
		{
			OFFSET 15.7357 0.0 0.0
			CHANNELS 6 Xposition Yposition Zposition Zrotation Xrotation Yrotation 
			JOINT Chest
			{
				OFFSET 8.98455 -0.406207 0.0
				CHANNELS 6 Xposition Yposition Zposition Zrotation Xrotation Yrotation 
				JOINT Neck
				{
					OFFSET 16.3773 0.0 0.0
					CHANNELS 6 Xposition Yposition Zposition Zrotation Xrotation Yrotation 
					JOINT Head
					{
						OFFSET 6.45672 0.0 0.0
						CHANNELS 6 Xposition Yposition Zposition Zrotation Xrotation Yrotation 
						End Site
						{
							OFFSET 0.0 0.0 0.0
						}
					}
				}
				JOINT Shoulder_L
				{
					OFFSET 12.9942 -0.242716 4.98039
					CHANNELS 6 Xposition Yposition Zposition Zrotation Xrotation Yrotation 
					JOINT UpperArm_L
					{
						OFFSET 5.34809 0.0 0.0
						CHANNELS 6 Xposition Yposition Zposition Zrotation Xrotation Yrotation 
						JOINT LowerArm_L
						{
							OFFSET 24.3286 1.87007e-05 0.0
							CHANNELS 6 Xposition Yposition Zposition Zrotation Xrotation Yrotation 
							JOINT Hand_L
							{
								OFFSET 22.2916 0.0 0.0
								CHANNELS 6 Xposition Yposition Zposition Zrotation Xrotation Yrotation 
								End Site
								{
									OFFSET 0.0 0.0 0.0
								}
							}
						}
					}
				}
				JOINT Shoulder_R
				{
					OFFSET 12.9945 -0.242716 -4.98039
					CHANNELS 6 Xposition Yposition Zposition Zrotation Xrotation Yrotation 
					JOINT UpperArm_R
					{
						OFFSET -5.34813 0.0 0.0
						CHANNELS 6 Xposition Yposition Zposition Zrotation Xrotation Yrotation 
						JOINT LowerArm_R
						{
							OFFSET -24.3289 0.000322201 0.0
							CHANNELS 6 Xposition Yposition Zposition Zrotation Xrotation Yrotation 
							JOINT Hand_R
							{
								OFFSET -22.2915 -0.000108084 0.0
								CHANNELS 6 Xposition Yposition Zposition Zrotation Xrotation Yrotation 
								End Site
								{
									OFFSET 0.0 0.0 0.0
								}
							}
						}
					}
				}
			}
		}
		JOINT UpperLeg_L
		{
			OFFSET -2.19248 -6.46944 0.0
			CHANNELS 6 Xposition Yposition Zposition Zrotation Xrotation Yrotation 
			JOINT LowerLeg_L
			{
				OFFSET 39.0811 0.0 -1.23785e-05
				CHANNELS 6 Xposition Yposition Zposition Zrotation Xrotation Yrotation 
				JOINT Foot_L
				{
					OFFSET 40.9854 0.0 -1.26872e-05
					CHANNELS 6 Xposition Yposition Zposition Zrotation Xrotation Yrotation 
					JOINT Toes_L
					{
						OFFSET 11.7543 0.0 0.0
						CHANNELS 6 Xposition Yposition Zposition Zrotation Xrotation Yrotation 
						End Site
						{
							OFFSET 0.0 0.0 0.0
						}
					}
				}
			}
		}
		JOINT UpperLeg_R
		{
			OFFSET -2.19251 6.46944 0.0
			CHANNELS 6 Xposition Yposition Zposition Zrotation Xrotation Yrotation 
			JOINT LowerLeg_R
			{
				OFFSET -39.0811 -0.00228153 -0.0401928
				CHANNELS 6 Xposition Yposition Zposition Zrotation Xrotation Yrotation 
				JOINT Foot_R
				{
					OFFSET -40.9854 0.0 0.0
					CHANNELS 6 Xposition Yposition Zposition Zrotation Xrotation Yrotation 
					JOINT Toes_R
					{
						OFFSET -11.7543 0.0 0.0
						CHANNELS 6 Xposition Yposition Zposition Zrotation Xrotation Yrotation 
						End Site
						{
							OFFSET 0.0 0.0 0.0
						}
					}
				}
			}
		}
	}
}
MOTION
Frames:	6
Frame Time:	0.0333333
0.000000 0.000000 0.000000 0.000000 0.000000 -0.000000 -2.984230 92.001800 -0.001187 84.429500 4.406200 3.634620 15.735700 0.000005 -0.000001 54.677800 86.341800 -51.383100 8.984550 -0.406207 -0.000000 -1.659950 -4.499950 6.525370 16.377300 -0.000001 -0.000001 8.053610 0.233982 6.343970 6.456720 -0.000001 -0.000000 1.762080 2.100920 12.113100 12.994200 -0.242716 4.980390 -91.965500 6.100970 -72.104900 5.348090 -0.000007 -0.000001 -76.453400 30.175200 1.619190 24.328600 0.000019 0.000005 12.972900 27.926600 -26.191800 22.291600 -0.000001 0.000005 -3.763780 5.027380 6.731600 12.994500 -0.242716 -4.980390 88.067500 5.233680 -69.700400 -5.348130 -0.000001 -0.000004 -72.552500 -0.245686 -13.999100 -24.328900 0.000322 -0.000009 17.116500 -19.618000 -137.471000 -22.291500 -0.000108 -0.000004 51.759000 5.635100 -13.729000 -2.192480 -6.469440 -0.000000 -172.238000 6.657190 -4.382610 39.081100 -0.000007 -0.000012 0.371424 -0.715622 27.431200 40.985400 -0.000006 -0.000013 1.432780 10.059700 -76.448000 11.754300 -0.000000 0.000003 0.000896 0.150850 -10.459100 -2.192510 6.469440 -0.000001 -171.020000 8.652290 -176.663000 -39.081100 -0.002282 -0.040193 0.087657 -0.318190 14.843300 -40.985400 0.000008 0.000006 3.351800 -0.316521 -71.077500 -11.754300 -0.000006 -0.000006 -0.008444 0.259287 -6.042250
0.000000 0.000000 0.000000 0.000000 0.000000 -0.000000 -2.987280 91.997100 0.025305 84.457900 4.503920 3.674690 15.735700 0.000005 -0.000001 55.059700 86.328600 -51.785500 8.984550 -0.406207 -0.000000 -1.611910 -4.472110 6.486330 16.377300 -0.000001 -0.000001 8.036700 0.225544 6.254090 6.456720 -0.000001 -0.000000 1.728230 2.082350 12.019500 12.994200 -0.242716 4.980390 -91.975800 6.145220 -72.137900 5.348090 -0.000007 -0.000001 -76.408600 30.145300 1.667740 24.328600 0.000019 0.000005 13.009300 28.081500 -26.142400 22.291600 -0.000001 0.000005 -3.680860 5.030090 6.672870 12.994500 -0.242716 -4.980390 88.071400 5.215010 -69.672000 -5.348130 -0.000001 -0.000004 -72.518000 -0.271628 -14.026200 -24.328900 0.000322 -0.000009 17.128100 -19.591700 -137.414000 -22.291500 -0.000108 -0.000004 51.799400 5.635380 -13.751800 -2.192480 -6.469440 -0.000000 -172.270000 6.739060 -4.336800 39.081100 -0.000007 -0.000012 0.370956 -0.714959 27.423400 40.985400 -0.000006 -0.000013 1.443760 10.094500 -76.446900 11.754300 -0.000000 0.000003 0.000901 0.150748 -10.463200 -2.192510 6.469440 -0.000001 -171.021000 8.585740 -176.605000 -39.081100 -0.002282 -0.040193 0.088869 -0.323071 14.829700 -40.985400 0.000008 0.000006 3.400920 -0.491927 -71.085500 -11.754300 -0.000006 -0.000006 -0.008457 0.259393 -6.037930
0.000000 0.000000 0.000000 0.000000 0.000000 -0.000000 -2.997810 92.003100 0.026677 84.458100 4.627140 3.587850 15.735700 0.000005 -0.000001 54.962800 86.342600 -51.694500 8.984550 -0.406207 -0.000000 -1.642420 -4.466590 6.473530 16.377300 -0.000001 -0.000001 8.020760 0.210526 6.222880 6.456720 -0.000001 -0.000000 1.705340 2.067810 11.893700 12.994200 -0.242716 4.980390 -91.979200 6.147810 -72.115700 5.348090 -0.000007 -0.000001 -76.399200 30.031500 1.687550 24.328600 0.000019 0.000005 13.026000 28.186400 -26.094900 22.291600 -0.000001 0.000005 -3.689570 5.029470 6.686140 12.994500 -0.242716 -4.980390 88.080300 5.187340 -69.659600 -5.348130 -0.000001 -0.000004 -72.523500 -0.330310 -14.046800 -24.328900 0.000322 -0.000009 17.035900 -19.480100 -137.421000 -22.291500 -0.000108 -0.000004 51.737800 5.635490 -13.760000 -2.192480 -6.469440 -0.000000 -172.245000 6.773490 -4.445650 39.081100 -0.000007 -0.000012 0.373964 -0.721327 27.404900 40.985400 -0.000006 -0.000013 1.446000 10.170800 -76.458000 11.754300 -0.000000 0.000003 0.000711 0.154646 -10.305000 -2.192510 6.469440 -0.000001 -171.008000 8.658290 -176.690000 -39.081100 -0.002282 -0.040193 0.085603 -0.311712 14.785500 -40.985400 0.000008 0.000006 3.295620 -0.521127 -70.995400 -11.754300 -0.000006 -0.000006 -0.008145 0.256883 -6.140460
0.000000 0.000000 0.000000 0.000000 0.000000 -0.000000 -3.009520 92.009500 0.035612 84.476400 4.732630 3.562650 15.735700 0.000005 -0.000001 55.023700 86.351300 -51.774600 8.984550 -0.406207 -0.000000 -1.653500 -4.449040 6.435160 16.377300 -0.000001 -0.000001 8.031170 0.209822 6.185610 6.456720 -0.000001 -0.000000 1.744460 2.017470 11.857200 12.994200 -0.242716 4.980390 -91.972100 6.123270 -72.109200 5.348090 -0.000007 -0.000001 -76.406000 29.890100 1.751390 24.328600 0.000019 0.000005 12.994300 28.175500 -26.045800 22.291600 -0.000001 0.000005 -3.647990 5.030340 6.667380 12.994500 -0.242716 -4.980390 88.079200 5.197900 -69.686500 -5.348130 -0.000001 -0.000004 -72.528000 -0.416206 -13.998900 -24.328900 0.000322 -0.000009 17.075900 -19.519900 -137.406000 -22.291500 -0.000108 -0.000004 51.761700 5.634900 -13.713400 -2.192480 -6.469440 -0.000000 -172.244000 6.796240 -4.459550 39.081100 -0.000007 -0.000012 0.372039 -0.719259 27.351300 40.985400 -0.000006 -0.000013 1.451620 10.245900 -76.431000 11.754300 -0.000000 0.000003 0.000773 0.153399 -10.355600 -2.192510 6.469440 -0.000001 -171.024000 8.706660 -176.705000 -39.081100 -0.002282 -0.040193 0.083833 -0.305374 14.768300 -40.985400 0.000008 0.000006 3.177700 -0.544686 -71.023600 -11.754300 -0.000006 -0.000006 -0.008433 0.259200 -6.045800
0.000000 0.000000 0.000000 0.000000 0.000000 -0.000000 -3.035490 92.016500 0.031230 84.497500 4.820420 3.518420 15.735700 0.000005 -0.000001 55.292300 86.359900 -52.067500 8.984550 -0.406207 -0.000000 -1.650320 -4.409050 6.387070 16.377300 -0.000001 -0.000001 8.036180 0.183773 6.180780 6.456720 -0.000001 -0.000000 1.712720 1.959440 11.827100 12.994200 -0.242716 4.980390 -91.967400 6.103710 -72.095900 5.348090 -0.000007 -0.000001 -76.329800 29.810100 1.738130 24.328600 0.000019 0.000005 12.977100 28.149100 -26.034300 22.291600 -0.000001 0.000005 -3.784820 5.033280 6.603390 12.994500 -0.242716 -4.980390 88.069100 5.208170 -69.625300 -5.348130 -0.000001 -0.000004 -72.567300 -0.399129 -14.033300 -24.328900 0.000322 -0.000009 17.096600 -19.504000 -137.347000 -22.291500 -0.000108 -0.000004 51.900300 5.636000 -13.800400 -2.192480 -6.469440 -0.000000 -172.249000 6.841000 -4.508550 39.081100 -0.000007 -0.000012 0.371706 -0.719916 27.309100 40.985400 -0.000006 -0.000013 1.432950 10.252700 -76.405700 11.754300 -0.000000 0.000003 0.000755 0.153771 -10.340500 -2.192510 6.469440 -0.000001 -171.034000 8.747800 -176.731000 -39.081100 -0.002282 -0.040193 0.082172 -0.300281 14.711400 -40.985400 0.000008 0.000006 3.157080 -0.548874 -70.968000 -11.754300 -0.000006 -0.000006 -0.008315 0.258254 -6.084470
0.000000 0.000000 0.000000 0.000000 0.000000 -0.000000 -3.052540 92.017800 0.018119 84.507800 4.936930 3.469050 15.735700 0.000005 -0.000001 55.456500 86.365100 -52.240400 8.984550 -0.406207 -0.000000 -1.648070 -4.385220 6.370050 16.377300 -0.000001 -0.000001 7.999770 0.188117 6.167700 6.456720 -0.000001 -0.000000 1.688310 1.911560 11.791200 12.994200 -0.242716 4.980390 -91.970800 6.117020 -72.103600 5.348090 -0.000007 -0.000001 -76.259800 29.743400 1.737600 24.328600 0.000019 0.000005 13.064800 28.272100 -26.101600 22.291600 -0.000001 0.000005 -3.818530 5.027030 6.739190 12.994500 -0.242716 -4.980390 88.067000 5.209350 -69.609600 -5.348130 -0.000001 -0.000004 -72.599500 -0.494044 -14.042400 -24.328900 0.000322 -0.000009 17.131400 -19.523500 -137.313000 -22.291500 -0.000108 -0.000004 51.849300 5.633050 -13.569200 -2.192480 -6.469440 -0.000000 -172.234000 6.918560 -4.591360 39.081100 -0.000007 -0.000012 0.369874 -0.716609 27.301200 40.985400 -0.000006 -0.000013 1.426700 10.305700 -76.365100 11.754300 -0.000000 0.000003 0.000824 0.152366 -10.397500 -2.192510 6.469440 -0.000001 -171.027000 8.883140 -176.788000 -39.081100 -0.002282 -0.040193 0.082450 -0.301873 14.686700 -40.985400 0.000008 0.000006 3.218780 -0.537530 -70.977500 -11.754300 -0.000006 -0.000006 -0.008418 0.259081 -6.050680
